<?xml version="1.0" encoding="UTF-8"?> <svg xmlns="http://www.w3.org/2000/svg" xmlns:xlink="http://www.w3.org/1999/xlink" width="124px" height="26px" viewBox="0 0 124 26" version="1.1"><title>logo-reversed@2x</title><g id="Page-1" stroke="none" stroke-width="1" fill="none" fill-rule="evenodd"><g id="Home-Copy-3" transform="translate(-150.000000, -67.000000)" fill-rule="nonzero"><g id="navigation" transform="translate(0.000000, 40.000000)"><g id="Kognitiv_Logo_R_TM" transform="translate(150.000000, 27.000000)"><path d="M17.9935919,9.80290051 C18.3532546,8.84937605 18.8634739,8.03595278 19.5242496,7.36472175 C20.1850253,6.69349073 20.979629,6.17490725 21.9059696,5.80688027 C22.8323103,5.43885329 23.8715683,5.2548398 25.0237437,5.2548398 C26.1759191,5.2548398 27.2193592,5.43885329 28.1561551,5.80688027 C29.09086,6.17490725 29.8896459,6.69558179 30.5504216,7.36472175 C31.2111973,8.03595278 31.7214165,8.84728499 32.0810793,9.80290051 C32.440742,10.756425 32.6205734,11.8207757 32.6205734,12.9917707 C32.6205734,14.1627656 32.440742,15.2208432 32.0810793,16.1660034 C31.7214165,17.1111636 31.2111973,17.9183137 30.5504216,18.5895447 C29.8896459,19.2607757 29.09086,19.7751771 28.1561551,20.1348398 C27.2214503,20.4924115 26.1759191,20.6743339 25.0237437,20.6743339 C23.8715683,20.6743339 22.8323103,20.4945025 21.9059696,20.1348398 C20.979629,19.7751771 20.1871164,19.2607757 19.5242496,18.5895447 C18.8634739,17.9183137 18.3532546,17.1111636 17.9935919,16.1660034 C17.6339292,15.2208432 17.4540978,14.1627656 17.4540978,12.9917707 C17.4561889,11.8186847 17.6360202,10.756425 17.9935919,9.80290051 Z M21.65086,14.7064418 C21.7637774,15.2647555 21.9582462,15.7645194 22.2321754,16.2078246 C22.5061046,16.6511298 22.8699494,17.0066105 23.3237099,17.2700843 C23.7774705,17.5356492 24.3441484,17.6673862 25.0237437,17.6673862 C25.703339,17.6673862 26.2762901,17.5356492 26.7384148,17.2700843 C27.2005396,17.0066105 27.5706577,16.6511298 27.8445868,16.2078246 C28.118516,15.7645194 28.3129848,15.2626644 28.4259022,14.7064418 C28.5388196,14.1481282 28.5952782,13.5772681 28.5952782,12.9917707 C28.5952782,12.4062732 28.5388196,11.82914 28.4259022,11.2624621 C28.3129848,10.6957841 28.118516,10.1960202 27.8445868,9.76107926 C27.5706577,9.32613828 27.2026307,8.97274874 26.7384148,8.69881956 C26.274199,8.42489039 25.703339,8.28688027 25.0237437,8.28688027 C24.3441484,8.28688027 23.7774705,8.42489039 23.3237099,8.69881956 C22.8699494,8.97274874 22.5061046,9.32822934 22.2321754,9.76107926 C21.9582462,10.1960202 21.7637774,10.6957841 21.65086,11.2624621 C21.5379427,11.82914 21.4814299,12.4062732 21.4814299,12.9917707 C21.4793929,13.5772681 21.5379427,14.1481282 21.65086,14.7064418 Z" id="Shape" fill="#FFFFFF"></path><path d="M48.7677572,21.381113 C48.6067454,22.1359865 48.2617201,22.8406745 47.7326813,23.493086 C47.2036425,24.1454975 46.4383137,24.6975379 45.4366948,25.1512985 C44.4350759,25.605059 43.0926138,25.8308938 41.4113997,25.8308938 C40.6920742,25.8308938 39.9602024,25.7409781 39.2157841,25.5611467 C38.4692749,25.3813153 37.7896796,25.103204 37.1749073,24.7247218 C36.5601349,24.3462395 36.0499157,23.861113 35.6442496,23.2651602 C35.2385835,22.6692074 35.0064755,21.9561551 34.9500169,21.1260034 L38.9460371,21.1260034 C39.1342327,21.8808769 39.5022597,22.4057336 40.0522091,22.6984823 C40.6000675,22.991231 41.2336594,23.1376054 41.9508938,23.1376054 C43.0842496,23.1376054 43.9102192,22.7967622 44.4308938,22.1171669 C44.9494772,21.4375717 45.2004047,20.576054 45.1815852,19.538887 L45.1815852,17.6109275 L45.1251265,17.6109275 C44.6901855,18.3867116 44.071231,18.9575717 43.2682631,19.3255987 C42.4652951,19.6936256 41.6205059,19.8776391 40.7318044,19.8776391 C39.6360877,19.8776391 38.6909275,19.6831703 37.8984148,19.2963238 C37.1038111,18.9094772 36.4534907,18.3804384 35.9432715,17.7092074 C35.4330523,17.0379764 35.0608432,16.253828 34.8245531,15.3567622 C34.5882631,14.4596965 34.4711636,13.5103541 34.4711636,12.5087352 C34.4711636,11.563575 34.6070826,10.6518718 34.8831029,9.77362563 C35.157032,8.89537943 35.558516,8.11959528 36.0875548,7.44836425 C36.6165936,6.77713322 37.2731872,6.24391231 38.0573356,5.84661046 C38.841484,5.4493086 39.7448229,5.25065767 40.7631703,5.25065767 C41.7271501,5.25065767 42.5719393,5.43048904 43.299629,5.79015177 C44.0273187,6.1498145 44.6358179,6.75413153 45.1272175,7.60310287 L45.1836762,7.60310287 L45.1836762,5.64795953 L49.0103204,5.64795953 L49.0103204,19.3653288 C49.0082293,19.9529174 48.928769,20.6241484 48.7677572,21.381113 Z M43.2557167,16.5047555 C43.6906577,16.2789207 44.0503204,15.9757167 44.3326138,15.5972344 C44.6169983,15.2187521 44.8281956,14.7900843 44.9703879,14.3070489 C45.1125801,13.8261046 45.1836762,13.3200675 45.1836762,12.7910287 C45.1836762,12.1867116 45.1272175,11.6137605 45.0143002,11.0763575 C44.9013828,10.5368634 44.7110961,10.0601012 44.4476223,9.64607083 C44.1820573,9.22994941 43.8328499,8.89956155 43.3979089,8.65490725 C42.962968,8.41025295 42.4151096,8.28688027 41.7543339,8.28688027 C41.187656,8.28688027 40.7004384,8.39979764 40.2947723,8.62772344 C39.8891062,8.85355818 39.5482631,9.16094435 39.2743339,9.54779089 C39.0004047,9.93463744 38.8017538,10.3800337 38.6783811,10.8797976 C38.5550084,11.3816526 38.4943676,11.9044182 38.4943676,12.4522766 C38.4943676,12.9813153 38.5466442,13.506172 38.6511973,14.0247555 C38.7557504,14.54543 38.9334907,15.0117369 39.1906914,15.4278583 C39.445801,15.8439798 39.780371,16.1827319 40.1964924,16.4482968 C40.6126138,16.7138617 41.1311973,16.8455987 41.756425,16.8455987 C42.3189207,16.8455987 42.8207757,16.7326813 43.2557167,16.5047555 Z" id="Shape" fill="#FFFFFF"></path><path d="M55.6285329,5.65005059 L55.6285329,7.69092749 L55.7142664,7.69092749 C56.2244857,6.83986509 56.8852614,6.22300169 57.6986847,5.83406408 C58.5100169,5.44721754 59.3422597,5.25274874 60.1933221,5.25274874 C61.2702192,5.25274874 62.1526476,5.3991231 62.8426981,5.69187184 C63.5327487,5.98462057 64.0743339,6.39028668 64.4716358,6.91096121 C64.8689376,7.43163575 65.1470489,8.06313659 65.3080607,8.80964587 C65.4690725,9.55615514 65.5485329,10.3821248 65.5485329,11.2896459 L65.5485329,20.3021248 L61.5232378,20.3021248 L61.5232378,12.0277909 C61.5232378,10.8191568 61.3350422,9.91581788 60.9565599,9.32195616 C60.5780776,8.72600337 59.9089376,8.42907251 58.9449578,8.42907251 C57.8492411,8.42907251 57.0546374,8.75527825 56.5632378,9.40768971 C56.0718381,10.0601012 55.8271838,11.1328162 55.8271838,12.6237437 L55.8271838,20.3042159 L51.8018887,20.3042159 L51.8018887,5.65005059 L55.6285329,5.65005059 Z" id="Path" fill="#FFFFFF"></path><path d="M68.4258347,3.38333895 L68.4258347,0.0669139966 L72.4511298,0.0669139966 L72.4511298,3.38333895 L68.4258347,3.38333895 Z M72.4511298,5.65005059 L72.4511298,20.3021248 L68.4258347,20.3021248 L68.4258347,5.65005059 L72.4511298,5.65005059 Z" id="Shape" fill="#FFFFFF"></path><path d="M83.9101518,5.65005059 L83.9101518,8.34333895 L80.9617538,8.34333895 L80.9617538,15.5993255 C80.9617538,16.2789207 81.0746712,16.7326813 81.302597,16.9606071 C81.5305228,17.1885329 81.9821922,17.3014503 82.6638786,17.3014503 C82.8897133,17.3014503 83.1071838,17.293086 83.3162901,17.2721754 C83.5233052,17.2533558 83.7219562,17.226172 83.9122428,17.1864418 L83.9122428,20.3042159 C83.5713997,20.3606745 83.1950084,20.3983137 82.778887,20.4171332 C82.3627656,20.4359528 81.9570995,20.4464081 81.5597976,20.4464081 C80.936661,20.4464081 80.3448904,20.4045868 79.7886678,20.3188533 C79.2303541,20.2331197 78.7389545,20.0679258 78.3144688,19.8232715 C77.8899831,19.5786172 77.5533221,19.2273187 77.3086678,18.7735582 C77.0619224,18.3197976 76.9406408,17.7259359 76.9406408,16.9877909 L76.9406408,8.34333895 L74.5024621,8.34333895 L74.5024621,5.65005059 L76.9406408,5.65005059 L76.9406408,1.2567285 L80.9659359,1.2567285 L80.9659359,5.65005059 L83.9101518,5.65005059 Z" id="Path" fill="#FFFFFF"></path><path d="M86.532344,3.38333895 L86.532344,0.0669139966 L90.5576391,0.0669139966 L90.5576391,3.38333895 L86.532344,3.38333895 Z M90.5576391,5.65005059 L90.5576391,20.3021248 L86.532344,20.3021248 L86.532344,5.65005059 L90.5576391,5.65005059 Z" id="Shape" fill="#FFFFFF"></path><polygon id="Path" fill="#FFFFFF" points="97.8303541 20.3021248 92.8138954 5.65005059 97.0378415 5.65005059 100.126341 15.6557841 100.182799 15.6557841 103.271298 5.65005059 107.267319 5.65005059 102.307319 20.3021248"></polygon><rect id="Rectangle" fill="#FFC703" transform="translate(116.644207, 18.629651) rotate(90.000000) translate(-116.644207, -18.629651) " x="114.971357" y="11.2743393" width="3.34569983" height="14.7106239"></rect><path d="M110.995683,2.93794266 C111.188061,3.01740304 111.353255,3.1303204 111.493356,3.27251265 C111.633457,3.41470489 111.744283,3.58198988 111.825835,3.77227656 C111.905295,3.9646543 111.947116,4.16957841 111.947116,4.38913997 C111.947116,4.61079258 111.907386,4.81780776 111.825835,5.00809444 C111.746374,5.19838111 111.635548,5.36357504 111.493356,5.50367622 C111.353255,5.6437774 111.18597,5.75460371 110.995683,5.83615514 C110.803305,5.91561551 110.59629,5.95743676 110.374637,5.95743676 C110.152985,5.95743676 109.94597,5.91770658 109.753592,5.83615514 C109.561214,5.75669477 109.39602,5.64586847 109.255919,5.50367622 C109.115818,5.36357504 109.004992,5.19838111 108.92344,5.00809444 C108.84398,4.81780776 108.802159,4.61079258 108.802159,4.38913997 C108.802159,4.16957841 108.841889,3.9646543 108.92344,3.77227656 C109.002901,3.57989882 109.113727,3.41470489 109.255919,3.27251265 C109.39602,3.1303204 109.563305,3.0194941 109.753592,2.93794266 C109.94597,2.85848229 110.152985,2.81666105 110.374637,2.81666105 C110.59629,2.81666105 110.803305,2.85639123 110.995683,2.93794266 Z M109.843508,3.1470489 C109.682496,3.21814503 109.542395,3.31224283 109.423204,3.43352445 C109.304013,3.55480607 109.212007,3.69699831 109.147184,3.86010118 C109.08027,4.02320405 109.048904,4.19885329 109.048904,4.3870489 C109.048904,4.57524452 109.082361,4.75089376 109.147184,4.91399663 C109.214098,5.07709949 109.306105,5.21929174 109.423204,5.34057336 C109.542395,5.46185497 109.682496,5.55804384 109.843508,5.6270489 C110.004519,5.69814503 110.18226,5.73369309 110.372546,5.73369309 C110.560742,5.73369309 110.736391,5.69814503 110.899494,5.6270489 C111.060506,5.55595278 111.200607,5.46185497 111.319798,5.34057336 C111.438988,5.21929174 111.530995,5.07709949 111.597909,4.91399663 C111.664823,4.75089376 111.69828,4.57524452 111.69828,4.3870489 C111.69828,4.19885329 111.664823,4.02320405 111.597909,3.86010118 C111.530995,3.69699831 111.436897,3.55480607 111.319798,3.43352445 C111.200607,3.31224283 111.060506,3.21605396 110.899494,3.1470489 C110.738482,3.07595278 110.562833,3.04040472 110.372546,3.04040472 C110.18226,3.04040472 110.00661,3.07595278 109.843508,3.1470489 Z M109.803777,5.29666105 L109.803777,3.47952782 L110.500101,3.47952782 C110.705025,3.47952782 110.855582,3.52344013 110.94968,3.60917369 C111.043777,3.69490725 111.091872,3.82037099 111.091872,3.98347386 C111.091872,4.06293423 111.079325,4.13193929 111.056324,4.19048904 C111.033322,4.24903879 110.999865,4.29922428 110.958044,4.34104553 C110.916223,4.38286678 110.868128,4.41423272 110.811669,4.4372344 C110.757302,4.46023609 110.698752,4.47905565 110.63602,4.48951096 L111.177605,5.29666105 L110.916223,5.29666105 L110.406003,4.48951096 L110.029612,4.48951096 L110.029612,5.29666105 L109.803777,5.29666105 Z M110.525194,4.2929511 C110.592108,4.28876897 110.650658,4.2762226 110.700843,4.25740304 C110.751029,4.23858347 110.79285,4.20512648 110.824216,4.16330523 C110.855582,4.11939292 110.870219,4.06084317 110.870219,3.98347386 C110.870219,3.91865093 110.857673,3.86637437 110.834671,3.82664418 C110.811669,3.786914 110.778212,3.75554806 110.738482,3.73254637 C110.696661,3.70954469 110.652749,3.69281619 110.600472,3.68445194 C110.550287,3.67608769 110.495919,3.67190556 110.43946,3.67190556 L110.029612,3.67190556 L110.029612,4.30131535 L110.324452,4.30131535 C110.391366,4.29922428 110.45828,4.29713322 110.525194,4.2929511 Z" id="Shape" fill="#FFFFFF"></path><polygon id="Path" fill="#FFFFFF" points="4.27831366 1.43028668 4.27831366 9.24458685 11.6451265 1.43028668 16.8184148 1.43028668 9.45369309 8.8744688 17.5314671 20.2791231 12.3309949 20.2791231 6.65376054 11.8061383 4.27831366 14.208769 4.27831366 20.2812142 0.133827993 20.2812142 0.133827993 1.43028668"></polygon></g></g></g></g></svg> 